<svg width="1350" height="823" viewBox="0 0 1350 823" fill="none" xmlns="http://www.w3.org/2000/svg">
<path d="M1349.71 822.769L1349.71 691.475L971.636 3.72099e-05L0 0L7.47183e-05 822.769L1189.53 822.769L1349.71 822.769Z" fill="#9AE23D"/>
<g opacity="0.4">
<mask id="mask0_394_626" style="mask-type:alpha" maskUnits="userSpaceOnUse" x="0" y="0" width="1350" height="823">
<path d="M1349.71 822.769L1349.71 691.475L971.636 3.72099e-05L0 0L7.47183e-05 822.769L1189.53 822.769L1349.71 822.769Z" fill="#CEF17B"/>
<path d="M924.489 79.5107L1270.2 711.794L1270.2 743.258L79.5108 743.258L79.5107 79.5107L924.489 79.5107Z" stroke="#E7FFAF" stroke-opacity="0.6" stroke-width="159.022"/>
</mask>
<g mask="url(#mask0_394_626)">
<g opacity="0.3">
<rect x="137.306" y="395.917" width="199.962" height="410.317" stroke="#E3FFEA" stroke-width="17.6"/>
<rect x="137.306" y="200.688" width="199.962" height="195.228" stroke="#E3FFEA" stroke-width="17.6"/>
<rect x="137.306" y="5.46094" width="199.962" height="195.228" stroke="#E3FFEA" stroke-width="17.6"/>
<rect x="337.568" y="806.233" width="199.962" height="195.228" stroke="#E3FFEA" stroke-width="17.6"/>
<rect x="337.568" y="395.917" width="199.962" height="195.228" stroke="#E3FFEA" stroke-width="17.6"/>
<rect x="1134.6" y="601.075" width="199.962" height="205.158" stroke="#E3FFEA" stroke-width="17.6"/>
<rect x="-62.6565" y="395.917" width="199.962" height="410.317" stroke="#E3FFEA" stroke-width="17.6"/>
<rect x="537.831" y="806.233" width="392.47" height="124.145" stroke="#E3FFEA" stroke-width="17.6"/>
<rect x="337.568" y="5.46094" width="386.715" height="800.772" stroke="#E3FFEA" stroke-width="17.6"/>
<rect x="337.568" y="395.917" width="386.715" height="410.317" stroke="#E3FFEA" stroke-width="17.6"/>
<rect x="929.442" y="395.917" width="405.122" height="410.317" stroke="#E3FFEA" stroke-width="17.6"/>
<rect x="929.441" y="270.34" width="405.121" height="125.576" stroke="#E3FFEA" stroke-width="17.6"/>
<circle cx="929.44" cy="601.075" r="205.158" transform="rotate(138.629 929.44 601.075)" stroke="#E3FFEA" stroke-width="17.6"/>
<circle cx="-146.307" cy="111.006" r="284.91" stroke="#E3FFEA" stroke-width="17.6"/>
<path d="M930.06 603.085L1084.61 466.969" stroke="#E3FFEA" stroke-width="17.6"/>
</g>
</g>
</g>
</svg>
